<svg xmlns="http://www.w3.org/2000/svg" xmlns:xlink="http://www.w3.org/1999/xlink" width="2100" zoomAndPan="magnify" viewBox="0 0 1574.88 209.999996" height="280" preserveAspectRatio="xMidYMid meet" version="1.0"><defs><g/><clipPath id="60199157db"><path d="M 56 145 L 185 145 L 185 209.96875 L 56 209.96875 Z M 56 145 " clip-rule="nonzero"/></clipPath><clipPath id="f9795fd17d"><path d="M 25 0.734375 L 634 0.734375 L 634 203 L 25 203 Z M 25 0.734375 " clip-rule="nonzero"/></clipPath><clipPath id="c81b4575f8"><path d="M 474 145 L 603 145 L 603 209.96875 L 474 209.96875 Z M 474 145 " clip-rule="nonzero"/></clipPath><clipPath id="6f06622666"><path d="M 578 65 L 659.199219 65 L 659.199219 104 L 578 104 Z M 578 65 " clip-rule="nonzero"/></clipPath><clipPath id="4e1810f854"><path d="M 688 0.0078125 L 1574.761719 0.0078125 L 1574.761719 145 L 688 145 Z M 688 0.0078125 " clip-rule="nonzero"/></clipPath><clipPath id="0853109c08"><rect x="0" width="887" y="0" height="145"/></clipPath><clipPath id="409442c706"><path d="M 901 135 L 1405 135 L 1405 209.992188 L 901 209.992188 Z M 901 135 " clip-rule="nonzero"/></clipPath><clipPath id="e612362332"><rect x="0" width="504" y="0" height="75"/></clipPath></defs><g clip-path="url(#60199157db)"><path fill="#f7f7f7" d="M 56.632812 145.609375 L 81.6875 201.417969 L 140.722656 209.769531 L 184.382812 195.34375 Z M 56.632812 145.609375 " fill-opacity="1" fill-rule="nonzero"/></g><g clip-path="url(#f9795fd17d)"><path fill="#f7f7f7" d="M 589.171875 202.007812 L 621.855469 134.46875 L 562.890625 96.25 L 329.53125 100.054688 L 96.175781 96.25 L 37.207031 134.46875 L 69.894531 202.007812 L 25.882812 130.230469 L 80.546875 93.21875 L 142.625 21.460938 C 145.453125 17.804688 150.992188 11.613281 159.957031 6.910156 C 167.554688 2.925781 174.59375 1.574219 179.242188 1.097656 C 180.125 1.003906 181.011719 0.957031 181.898438 0.957031 L 477.164062 0.957031 C 478.050781 0.957031 478.933594 1.003906 479.824219 1.097656 C 484.46875 1.574219 491.511719 2.925781 499.109375 6.910156 C 508.066406 11.613281 513.613281 17.800781 516.441406 21.460938 L 578.519531 93.21875 L 633.179688 130.230469 Z M 589.171875 202.007812 " fill-opacity="1" fill-rule="nonzero"/></g><path fill="#f7f7f7" d="M 80.546875 93.21875 L 63.527344 67.152344 L 22.527344 65.882812 L 0 89.421875 L 23.285156 97.519531 L 61.25 97.519531 L 65.101562 103.675781 Z M 80.546875 93.21875 " fill-opacity="1" fill-rule="nonzero"/><path fill="#f7f7f7" d="M 65.101562 103.675781 L 80.546875 93.21875 L 63.527344 67.152344 " fill-opacity="1" fill-rule="nonzero"/><g clip-path="url(#c81b4575f8)"><path fill="#f7f7f7" d="M 602.433594 145.609375 L 577.378906 201.417969 L 518.34375 209.769531 L 474.679688 195.34375 Z M 602.433594 145.609375 " fill-opacity="1" fill-rule="nonzero"/></g><g clip-path="url(#6f06622666)"><path fill="#f7f7f7" d="M 578.515625 93.21875 L 595.539062 67.152344 L 636.539062 65.882812 L 659.0625 89.421875 L 635.777344 97.519531 L 597.8125 97.519531 L 593.964844 103.675781 Z M 578.515625 93.21875 " fill-opacity="1" fill-rule="nonzero"/></g><path fill="#f7f7f7" d="M 593.964844 103.675781 L 578.515625 93.21875 L 595.539062 67.152344 " fill-opacity="1" fill-rule="nonzero"/><path fill="#f7f7f7" d="M 199.820312 196.226562 C 285.875 191.929688 373.191406 191.894531 459.238281 196.226562 C 373.191406 200.554688 285.875 200.519531 199.820312 196.226562 Z M 199.820312 196.226562 " fill-opacity="1" fill-rule="nonzero"/><g clip-path="url(#4e1810f854)"><g transform="matrix(1, 0, 0, 1, 688, -0.000000000000003613)"><g clip-path="url(#0853109c08)"><g fill="#f7f7f7" fill-opacity="1"><g transform="translate(1.349436, 113.073485)"><g><path d="M 9.875 0 C 9.375 0 8.941406 -0.175781 8.578125 -0.53125 C 8.222656 -0.882812 8.046875 -1.316406 8.046875 -1.828125 L 8.046875 -104.546875 C 8.046875 -105.054688 8.222656 -105.488281 8.578125 -105.84375 C 8.941406 -106.195312 9.375 -106.375 9.875 -106.375 L 27.65625 -106.375 C 28.164062 -106.375 28.597656 -106.195312 28.953125 -105.84375 C 29.304688 -105.488281 29.484375 -105.054688 29.484375 -104.546875 L 29.484375 -64.125 C 29.484375 -63.820312 29.609375 -63.617188 29.859375 -63.515625 C 30.109375 -63.421875 30.285156 -63.523438 30.390625 -63.828125 L 57.59375 -105.15625 C 58.101562 -105.96875 58.8125 -106.375 59.71875 -106.375 L 79.328125 -106.375 C 80.035156 -106.375 80.515625 -106.171875 80.765625 -105.765625 C 81.023438 -105.359375 80.953125 -104.851562 80.546875 -104.25 L 52.421875 -60.640625 C 52.328125 -60.328125 52.328125 -59.972656 52.421875 -59.578125 L 82.21875 -2.125 C 82.414062 -1.71875 82.515625 -1.414062 82.515625 -1.21875 C 82.515625 -0.40625 81.957031 0 80.84375 0 L 61.390625 0 C 60.484375 0 59.773438 -0.457031 59.265625 -1.375 L 37.6875 -43 C 37.582031 -43.3125 37.425781 -43.46875 37.21875 -43.46875 C 37.019531 -43.46875 36.820312 -43.3125 36.625 -43 L 29.78125 -33.125 C 29.582031 -32.71875 29.484375 -32.414062 29.484375 -32.21875 L 29.484375 -1.828125 C 29.484375 -1.316406 29.304688 -0.882812 28.953125 -0.53125 C 28.597656 -0.175781 28.164062 0 27.65625 0 Z M 9.875 0 "/></g></g></g><g fill="#f7f7f7" fill-opacity="1"><g transform="translate(114.707165, 113.073485)"><g><path d="M 72.796875 -89.8125 C 72.796875 -89.300781 72.617188 -88.867188 72.265625 -88.515625 C 71.910156 -88.160156 71.476562 -87.984375 70.96875 -87.984375 L 30.234375 -87.984375 C 29.734375 -87.984375 29.484375 -87.734375 29.484375 -87.234375 L 29.484375 -63.515625 C 29.484375 -63.015625 29.734375 -62.765625 30.234375 -62.765625 L 55.625 -62.765625 C 56.125 -62.765625 56.550781 -62.585938 56.90625 -62.234375 C 57.257812 -61.878906 57.4375 -61.445312 57.4375 -60.9375 L 57.4375 -46.203125 C 57.4375 -45.691406 57.257812 -45.257812 56.90625 -44.90625 C 56.550781 -44.550781 56.125 -44.375 55.625 -44.375 L 30.234375 -44.375 C 29.734375 -44.375 29.484375 -44.117188 29.484375 -43.609375 L 29.484375 -19.140625 C 29.484375 -18.640625 29.734375 -18.390625 30.234375 -18.390625 L 70.96875 -18.390625 C 71.476562 -18.390625 71.910156 -18.210938 72.265625 -17.859375 C 72.617188 -17.503906 72.796875 -17.070312 72.796875 -16.5625 L 72.796875 -1.828125 C 72.796875 -1.316406 72.617188 -0.882812 72.265625 -0.53125 C 71.910156 -0.175781 71.476562 0 70.96875 0 L 9.875 0 C 9.375 0 8.941406 -0.175781 8.578125 -0.53125 C 8.222656 -0.882812 8.046875 -1.316406 8.046875 -1.828125 L 8.046875 -104.546875 C 8.046875 -105.054688 8.222656 -105.488281 8.578125 -105.84375 C 8.941406 -106.195312 9.375 -106.375 9.875 -106.375 L 70.96875 -106.375 C 71.476562 -106.375 71.910156 -106.195312 72.265625 -105.84375 C 72.617188 -105.488281 72.796875 -105.054688 72.796875 -104.546875 Z M 72.796875 -89.8125 "/></g></g></g><g fill="#f7f7f7" fill-opacity="1"><g transform="translate(220.923652, 113.073485)"><g><path d="M 60.328125 -104.546875 C 60.328125 -105.054688 60.503906 -105.488281 60.859375 -105.84375 C 61.210938 -106.195312 61.644531 -106.375 62.15625 -106.375 L 79.78125 -106.375 C 80.289062 -106.375 80.722656 -106.195312 81.078125 -105.84375 C 81.429688 -105.488281 81.609375 -105.054688 81.609375 -104.546875 L 81.609375 -1.828125 C 81.609375 -1.316406 81.429688 -0.882812 81.078125 -0.53125 C 80.722656 -0.175781 80.289062 0 79.78125 0 L 61.25 0 C 60.226562 0 59.515625 -0.457031 59.109375 -1.375 L 30.09375 -63.21875 C 29.882812 -63.519531 29.675781 -63.671875 29.46875 -63.671875 C 29.269531 -63.671875 29.171875 -63.46875 29.171875 -63.0625 L 29.328125 -1.828125 C 29.328125 -1.316406 29.148438 -0.882812 28.796875 -0.53125 C 28.441406 -0.175781 28.007812 0 27.5 0 L 9.875 0 C 9.375 0 8.941406 -0.175781 8.578125 -0.53125 C 8.222656 -0.882812 8.046875 -1.316406 8.046875 -1.828125 L 8.046875 -104.546875 C 8.046875 -105.054688 8.222656 -105.488281 8.578125 -105.84375 C 8.941406 -106.195312 9.375 -106.375 9.875 -106.375 L 28.265625 -106.375 C 29.273438 -106.375 29.984375 -105.921875 30.390625 -105.015625 L 59.421875 -43.15625 C 59.617188 -42.851562 59.816406 -42.703125 60.015625 -42.703125 C 60.222656 -42.703125 60.328125 -42.90625 60.328125 -43.3125 Z M 60.328125 -104.546875 "/></g></g></g><g fill="#f7f7f7" fill-opacity="1"><g transform="translate(339.143511, 113.073485)"><g><path d="M 9.875 0 C 9.375 0 8.941406 -0.175781 8.578125 -0.53125 C 8.222656 -0.882812 8.046875 -1.316406 8.046875 -1.828125 L 8.046875 -104.546875 C 8.046875 -105.054688 8.222656 -105.488281 8.578125 -105.84375 C 8.941406 -106.195312 9.375 -106.375 9.875 -106.375 L 42.546875 -106.375 C 49.335938 -106.375 55.34375 -105.109375 60.5625 -102.578125 C 65.78125 -100.046875 69.804688 -96.445312 72.640625 -91.78125 C 75.472656 -87.125 76.890625 -81.707031 76.890625 -75.53125 L 76.890625 -30.84375 C 76.890625 -24.664062 75.472656 -19.242188 72.640625 -14.578125 C 69.804688 -9.921875 65.78125 -6.328125 60.5625 -3.796875 C 55.34375 -1.265625 49.335938 0 42.546875 0 Z M 29.484375 -19.140625 C 29.484375 -18.640625 29.734375 -18.390625 30.234375 -18.390625 L 42.703125 -18.546875 C 46.453125 -18.546875 49.488281 -19.882812 51.8125 -22.5625 C 54.144531 -25.25 55.363281 -28.820312 55.46875 -33.28125 L 55.46875 -73.09375 C 55.46875 -77.65625 54.300781 -81.273438 51.96875 -83.953125 C 49.644531 -86.640625 46.554688 -87.984375 42.703125 -87.984375 L 30.234375 -87.984375 C 29.734375 -87.984375 29.484375 -87.734375 29.484375 -87.234375 Z M 29.484375 -19.140625 "/></g></g></g><g fill="#f7f7f7" fill-opacity="1"><g transform="translate(450.829872, 113.073485)"><g><path d="M 41.484375 1.375 C 34.492188 1.375 28.335938 -0.0390625 23.015625 -2.875 C 17.703125 -5.71875 13.578125 -9.722656 10.640625 -14.890625 C 7.703125 -20.054688 6.234375 -26.085938 6.234375 -32.984375 L 6.234375 -73.40625 C 6.234375 -80.1875 7.703125 -86.160156 10.640625 -91.328125 C 13.578125 -96.492188 17.703125 -100.492188 23.015625 -103.328125 C 28.335938 -106.171875 34.492188 -107.59375 41.484375 -107.59375 C 48.472656 -107.59375 54.648438 -106.171875 60.015625 -103.328125 C 65.390625 -100.492188 69.546875 -96.492188 72.484375 -91.328125 C 75.421875 -86.160156 76.890625 -80.1875 76.890625 -73.40625 L 76.890625 -32.984375 C 76.890625 -26.085938 75.421875 -20.054688 72.484375 -14.890625 C 69.546875 -9.722656 65.390625 -5.71875 60.015625 -2.875 C 54.648438 -0.0390625 48.472656 1.375 41.484375 1.375 Z M 41.484375 -17.015625 C 45.742188 -17.015625 49.140625 -18.40625 51.671875 -21.1875 C 54.203125 -23.976562 55.46875 -27.601562 55.46875 -32.0625 L 55.46875 -74.015625 C 55.46875 -78.566406 54.203125 -82.234375 51.671875 -85.015625 C 49.140625 -87.804688 45.742188 -89.203125 41.484375 -89.203125 C 37.328125 -89.203125 33.984375 -87.804688 31.453125 -85.015625 C 28.921875 -82.234375 27.65625 -78.566406 27.65625 -74.015625 L 27.65625 -32.0625 C 27.65625 -27.601562 28.921875 -23.976562 31.453125 -21.1875 C 33.984375 -18.40625 37.328125 -17.015625 41.484375 -17.015625 Z M 41.484375 -17.015625 "/></g></g></g><g fill="#f7f7f7" fill-opacity="1"><g transform="translate(562.516234, 113.073485)"><g><path d="M 66.5625 -105.15625 C 66.96875 -105.96875 67.675781 -106.375 68.6875 -106.375 L 86.3125 -106.375 C 86.820312 -106.375 87.253906 -106.195312 87.609375 -105.84375 C 87.960938 -105.488281 88.140625 -105.054688 88.140625 -104.546875 L 88.140625 -1.828125 C 88.140625 -1.316406 87.960938 -0.882812 87.609375 -0.53125 C 87.253906 -0.175781 86.820312 0 86.3125 0 L 68.53125 0 C 68.03125 0 67.601562 -0.175781 67.25 -0.53125 C 66.894531 -0.882812 66.71875 -1.316406 66.71875 -1.828125 L 66.71875 -69.296875 C 66.71875 -69.703125 66.613281 -69.929688 66.40625 -69.984375 C 66.207031 -70.035156 66.003906 -69.910156 65.796875 -69.609375 L 51.828125 -46.5 C 51.421875 -45.6875 50.707031 -45.28125 49.6875 -45.28125 L 46.203125 -45.28125 C 45.179688 -45.28125 44.472656 -45.6875 44.078125 -46.5 L 30.09375 -69.609375 C 29.882812 -69.910156 29.675781 -70.035156 29.46875 -69.984375 C 29.269531 -69.929688 29.171875 -69.703125 29.171875 -69.296875 L 29.171875 -1.828125 C 29.171875 -1.316406 28.992188 -0.882812 28.640625 -0.53125 C 28.285156 -0.175781 27.859375 0 27.359375 0 L 9.578125 0 C 9.066406 0 8.632812 -0.175781 8.28125 -0.53125 C 7.925781 -0.882812 7.75 -1.316406 7.75 -1.828125 L 7.75 -104.546875 C 7.75 -105.054688 7.925781 -105.488281 8.28125 -105.84375 C 8.632812 -106.195312 9.066406 -106.375 9.578125 -106.375 L 27.203125 -106.375 C 28.210938 -106.375 28.921875 -105.96875 29.328125 -105.15625 L 47.5625 -75.21875 C 47.863281 -74.613281 48.171875 -74.613281 48.484375 -75.21875 Z M 66.5625 -105.15625 "/></g></g></g><g fill="#f7f7f7" fill-opacity="1"><g transform="translate(686.96569, 113.073485)"><g><path d="M 41.484375 1.375 C 34.492188 1.375 28.335938 -0.0390625 23.015625 -2.875 C 17.703125 -5.71875 13.578125 -9.722656 10.640625 -14.890625 C 7.703125 -20.054688 6.234375 -26.085938 6.234375 -32.984375 L 6.234375 -73.40625 C 6.234375 -80.1875 7.703125 -86.160156 10.640625 -91.328125 C 13.578125 -96.492188 17.703125 -100.492188 23.015625 -103.328125 C 28.335938 -106.171875 34.492188 -107.59375 41.484375 -107.59375 C 48.472656 -107.59375 54.648438 -106.171875 60.015625 -103.328125 C 65.390625 -100.492188 69.546875 -96.492188 72.484375 -91.328125 C 75.421875 -86.160156 76.890625 -80.1875 76.890625 -73.40625 L 76.890625 -32.984375 C 76.890625 -26.085938 75.421875 -20.054688 72.484375 -14.890625 C 69.546875 -9.722656 65.390625 -5.71875 60.015625 -2.875 C 54.648438 -0.0390625 48.472656 1.375 41.484375 1.375 Z M 41.484375 -17.015625 C 45.742188 -17.015625 49.140625 -18.40625 51.671875 -21.1875 C 54.203125 -23.976562 55.46875 -27.601562 55.46875 -32.0625 L 55.46875 -74.015625 C 55.46875 -78.566406 54.203125 -82.234375 51.671875 -85.015625 C 49.140625 -87.804688 45.742188 -89.203125 41.484375 -89.203125 C 37.328125 -89.203125 33.984375 -87.804688 31.453125 -85.015625 C 28.921875 -82.234375 27.65625 -78.566406 27.65625 -74.015625 L 27.65625 -32.0625 C 27.65625 -27.601562 28.921875 -23.976562 31.453125 -21.1875 C 33.984375 -18.40625 37.328125 -17.015625 41.484375 -17.015625 Z M 41.484375 -17.015625 "/></g></g></g><g fill="#f7f7f7" fill-opacity="1"><g transform="translate(798.652051, 113.073485)"><g><path d="M 60.328125 -104.546875 C 60.328125 -105.054688 60.503906 -105.488281 60.859375 -105.84375 C 61.210938 -106.195312 61.644531 -106.375 62.15625 -106.375 L 79.78125 -106.375 C 80.289062 -106.375 80.722656 -106.195312 81.078125 -105.84375 C 81.429688 -105.488281 81.609375 -105.054688 81.609375 -104.546875 L 81.609375 -1.828125 C 81.609375 -1.316406 81.429688 -0.882812 81.078125 -0.53125 C 80.722656 -0.175781 80.289062 0 79.78125 0 L 61.25 0 C 60.226562 0 59.515625 -0.457031 59.109375 -1.375 L 30.09375 -63.21875 C 29.882812 -63.519531 29.675781 -63.671875 29.46875 -63.671875 C 29.269531 -63.671875 29.171875 -63.46875 29.171875 -63.0625 L 29.328125 -1.828125 C 29.328125 -1.316406 29.148438 -0.882812 28.796875 -0.53125 C 28.441406 -0.175781 28.007812 0 27.5 0 L 9.875 0 C 9.375 0 8.941406 -0.175781 8.578125 -0.53125 C 8.222656 -0.882812 8.046875 -1.316406 8.046875 -1.828125 L 8.046875 -104.546875 C 8.046875 -105.054688 8.222656 -105.488281 8.578125 -105.84375 C 8.941406 -106.195312 9.375 -106.375 9.875 -106.375 L 28.265625 -106.375 C 29.273438 -106.375 29.984375 -105.921875 30.390625 -105.015625 L 59.421875 -43.15625 C 59.617188 -42.851562 59.816406 -42.703125 60.015625 -42.703125 C 60.222656 -42.703125 60.328125 -42.90625 60.328125 -43.3125 Z M 60.328125 -104.546875 "/></g></g></g></g></g></g><g clip-path="url(#409442c706)"><g transform="matrix(1, 0, 0, 1, 901, 135)"><g clip-path="url(#e612362332)"><g fill="#f7f7f7" fill-opacity="1"><g transform="translate(0.676201, 70.61065)"><g><path d="M 27.28125 0 L 11.328125 -41.6875 L 11.0625 -41.6875 C 11.363281 -38.382812 11.515625 -34.457031 11.515625 -29.90625 L 11.515625 0 L 6.46875 0 L 6.46875 -47.03125 L 14.703125 -47.03125 L 29.59375 -8.234375 L 29.84375 -8.234375 L 44.875 -47.03125 L 53.046875 -47.03125 L 53.046875 0 L 47.578125 0 L 47.578125 -30.296875 C 47.578125 -33.773438 47.722656 -37.550781 48.015625 -41.625 L 47.765625 -41.625 L 31.6875 0 Z M 27.28125 0 "/></g></g></g><g fill="#f7f7f7" fill-opacity="1"><g transform="translate(97.531061, 70.61065)"><g><path d="M 47.28125 -23.578125 C 47.28125 -16.046875 45.375 -10.125 41.5625 -5.8125 C 37.757812 -1.507812 32.472656 0.640625 25.703125 0.640625 C 18.773438 0.640625 13.425781 -1.472656 9.65625 -5.703125 C 5.894531 -9.941406 4.015625 -15.921875 4.015625 -23.640625 C 4.015625 -31.296875 5.898438 -37.226562 9.671875 -41.4375 C 13.453125 -45.65625 18.816406 -47.765625 25.765625 -47.765625 C 32.515625 -47.765625 37.785156 -45.617188 41.578125 -41.328125 C 45.378906 -37.046875 47.28125 -31.128906 47.28125 -23.578125 Z M 9.8125 -23.578125 C 9.8125 -17.210938 11.164062 -12.382812 13.875 -9.09375 C 16.59375 -5.800781 20.535156 -4.15625 25.703125 -4.15625 C 30.910156 -4.15625 34.84375 -5.789062 37.5 -9.0625 C 40.164062 -12.34375 41.5 -17.179688 41.5 -23.578125 C 41.5 -29.898438 40.171875 -34.695312 37.515625 -37.96875 C 34.867188 -41.238281 30.953125 -42.875 25.765625 -42.875 C 20.554688 -42.875 16.59375 -41.226562 13.875 -37.9375 C 11.164062 -34.644531 9.8125 -29.859375 9.8125 -23.578125 Z M 9.8125 -23.578125 "/></g></g></g><g fill="#f7f7f7" fill-opacity="1"><g transform="translate(186.223073, 70.61065)"><g><path d="M 20.9375 0 L 15.46875 0 L 15.46875 -42.171875 L 0.578125 -42.171875 L 0.578125 -47.03125 L 35.828125 -47.03125 L 35.828125 -42.171875 L 20.9375 -42.171875 Z M 20.9375 0 "/></g></g></g><g fill="#f7f7f7" fill-opacity="1"><g transform="translate(260.06771, 70.61065)"><g><path d="M 47.28125 -23.578125 C 47.28125 -16.046875 45.375 -10.125 41.5625 -5.8125 C 37.757812 -1.507812 32.472656 0.640625 25.703125 0.640625 C 18.773438 0.640625 13.425781 -1.472656 9.65625 -5.703125 C 5.894531 -9.941406 4.015625 -15.921875 4.015625 -23.640625 C 4.015625 -31.296875 5.898438 -37.226562 9.671875 -41.4375 C 13.453125 -45.65625 18.816406 -47.765625 25.765625 -47.765625 C 32.515625 -47.765625 37.785156 -45.617188 41.578125 -41.328125 C 45.378906 -37.046875 47.28125 -31.128906 47.28125 -23.578125 Z M 9.8125 -23.578125 C 9.8125 -17.210938 11.164062 -12.382812 13.875 -9.09375 C 16.59375 -5.800781 20.535156 -4.15625 25.703125 -4.15625 C 30.910156 -4.15625 34.84375 -5.789062 37.5 -9.0625 C 40.164062 -12.34375 41.5 -17.179688 41.5 -23.578125 C 41.5 -29.898438 40.171875 -34.695312 37.515625 -37.96875 C 34.867188 -41.238281 30.953125 -42.875 25.765625 -42.875 C 20.554688 -42.875 16.59375 -41.226562 13.875 -37.9375 C 11.164062 -34.644531 9.8125 -29.859375 9.8125 -23.578125 Z M 9.8125 -23.578125 "/></g></g></g><g fill="#f7f7f7" fill-opacity="1"><g transform="translate(348.759723, 70.61065)"><g><path d="M 11.9375 -19.5625 L 11.9375 0 L 6.46875 0 L 6.46875 -47.03125 L 19.359375 -47.03125 C 25.128906 -47.03125 29.390625 -45.925781 32.140625 -43.71875 C 34.898438 -41.507812 36.28125 -38.179688 36.28125 -33.734375 C 36.28125 -27.515625 33.128906 -23.3125 26.828125 -21.125 L 39.59375 0 L 33.125 0 L 21.75 -19.5625 Z M 11.9375 -24.25 L 19.421875 -24.25 C 23.285156 -24.25 26.117188 -25.015625 27.921875 -26.546875 C 29.722656 -28.085938 30.625 -30.390625 30.625 -33.453125 C 30.625 -36.554688 29.707031 -38.796875 27.875 -40.171875 C 26.039062 -41.546875 23.097656 -42.234375 19.046875 -42.234375 L 11.9375 -42.234375 Z M 11.9375 -24.25 "/></g></g></g><g fill="#f7f7f7" fill-opacity="1"><g transform="translate(426.878576, 70.61065)"><g><path d="M 33 -12.515625 C 33 -8.367188 31.5 -5.140625 28.5 -2.828125 C 25.5 -0.515625 21.425781 0.640625 16.28125 0.640625 C 10.695312 0.640625 6.40625 -0.078125 3.40625 -1.515625 L 3.40625 -6.78125 C 5.332031 -5.96875 7.429688 -5.328125 9.703125 -4.859375 C 11.984375 -4.390625 14.238281 -4.15625 16.46875 -4.15625 C 20.113281 -4.15625 22.859375 -4.84375 24.703125 -6.21875 C 26.546875 -7.601562 27.46875 -9.53125 27.46875 -12 C 27.46875 -13.625 27.140625 -14.957031 26.484375 -16 C 25.828125 -17.039062 24.734375 -18 23.203125 -18.875 C 21.671875 -19.757812 19.34375 -20.757812 16.21875 -21.875 C 11.84375 -23.4375 8.710938 -25.289062 6.828125 -27.4375 C 4.953125 -29.582031 4.015625 -32.378906 4.015625 -35.828125 C 4.015625 -39.453125 5.375 -42.335938 8.09375 -44.484375 C 10.820312 -46.628906 14.425781 -47.703125 18.90625 -47.703125 C 23.582031 -47.703125 27.882812 -46.84375 31.8125 -45.125 L 30.109375 -40.375 C 26.222656 -42 22.445312 -42.8125 18.78125 -42.8125 C 15.882812 -42.8125 13.617188 -42.1875 11.984375 -40.9375 C 10.359375 -39.695312 9.546875 -37.972656 9.546875 -35.765625 C 9.546875 -34.140625 9.847656 -32.804688 10.453125 -31.765625 C 11.054688 -30.722656 12.066406 -29.765625 13.484375 -28.890625 C 14.910156 -28.023438 17.097656 -27.066406 20.046875 -26.015625 C 24.972656 -24.265625 28.363281 -22.378906 30.21875 -20.359375 C 32.070312 -18.347656 33 -15.734375 33 -12.515625 Z M 33 -12.515625 "/></g></g></g></g></g></g></svg>